<?xml version="1.0" standalone="no"?>
<!DOCTYPE svg PUBLIC "-//W3C//DTD SVG 20010904//EN"
 "http://www.w3.org/TR/2001/REC-SVG-20010904/DTD/svg10.dtd">
<svg version="1.0" xmlns="http://www.w3.org/2000/svg"
 width="1000.000000pt" height="1000.000000pt" viewBox="0 0 1000.000000 1000.000000"
 preserveAspectRatio="xMidYMid meet">
<metadata>
Created by potrace 1.14, written by Peter Selinger 2001-2017
</metadata>
<g transform="translate(0.000000,1000.000000) scale(0.100000,-0.100000)"
fill="#000000" stroke="none">
<path d="M0 5000 l0 -5000 5000 0 5000 0 0 5000 0 5000 -5000 0 -5000 0 0
-5000z m993 4589 c31 -17 48 -38 77 -94 14 -28 34 -58 45 -68 11 -10 20 -22
20 -26 0 -4 8 -15 18 -25 9 -10 17 -24 17 -32 0 -8 4 -14 9 -14 5 0 12 -11 15
-25 4 -14 11 -25 16 -25 6 0 10 -7 10 -15 0 -8 4 -15 10 -15 5 0 12 -11 16
-25 3 -14 10 -25 15 -25 5 0 9 -7 9 -15 0 -8 7 -15 16 -15 10 0 14 -6 10 -15
-3 -9 0 -15 9 -15 8 0 15 -5 15 -12 0 -6 14 4 30 22 17 18 30 39 30 47 0 18
44 27 70 13 20 -11 22 -17 15 -59 -3 -25 -9 -72 -11 -104 -5 -58 -4 -59 26
-70 16 -6 30 -15 30 -20 0 -4 9 -17 20 -29 11 -12 20 -28 20 -35 0 -7 6 -13
13 -13 8 0 22 -17 33 -37 20 -39 38 -64 67 -95 9 -10 17 -27 17 -38 0 -11 7
-20 16 -20 8 0 12 -4 9 -10 -3 -5 1 -10 9 -10 9 0 16 -9 16 -20 0 -11 5 -20
10 -20 6 0 10 -8 10 -17 0 -29 24 -83 36 -83 7 0 16 -10 19 -22 4 -11 18 -31
31 -43 13 -12 24 -26 24 -30 0 -4 8 -15 19 -24 10 -9 22 -27 26 -40 4 -13 20
-37 36 -54 17 -17 28 -36 25 -42 -2 -7 7 -20 20 -30 13 -10 24 -27 24 -37 0
-11 9 -22 20 -25 11 -3 20 -11 20 -18 0 -7 7 -15 15 -19 8 -3 15 -17 15 -31 0
-14 6 -25 14 -25 9 0 15 -17 18 -51 3 -28 9 -54 15 -58 17 -12 52 -68 46 -75
-3 -3 -1 -6 5 -6 7 0 12 -7 12 -15 0 -8 7 -15 15 -15 8 0 15 -7 15 -15 0 -8 4
-15 10 -15 5 0 12 -11 16 -25 3 -14 10 -25 15 -25 5 0 9 -7 9 -15 0 -8 4 -15
10 -15 5 0 12 -11 16 -25 3 -14 12 -25 20 -25 8 0 14 -7 14 -15 0 -8 5 -15 10
-15 6 0 10 -6 10 -14 0 -10 11 -14 35 -13 19 1 35 5 35 9 0 4 3 7 8 6 9 -4 82
52 80 60 -1 4 4 20 10 35 15 35 15 46 1 86 -9 24 -17 31 -37 31 -47 1 -69 31
-75 107 -1 12 -5 24 -8 27 -3 4 -4 29 -1 56 3 33 1 50 -7 50 -18 0 -13 46 10
94 l22 44 -21 34 c-12 19 -24 55 -26 79 -3 24 -6 46 -7 49 -2 7 -2 4 10 92 9
68 23 110 41 128 3 3 11 17 19 31 32 63 135 140 163 123 6 -4 13 -2 17 4 11
18 175 -39 185 -64 3 -8 12 -14 21 -14 8 0 15 -7 15 -15 0 -9 8 -19 17 -22 21
-8 53 -40 53 -53 0 -5 4 -10 9 -10 5 0 13 -15 16 -32 4 -18 12 -39 17 -45 6
-7 7 -13 2 -13 -5 0 -4 -4 3 -8 19 -12 44 -152 34 -188 -5 -17 -7 -44 -4 -60
6 -43 36 -137 48 -150 6 -7 18 -21 27 -33 15 -17 22 -19 45 -10 15 5 38 7 51
4 21 -5 23 -9 16 -52 -5 -35 -15 -53 -37 -72 -17 -14 -34 -26 -38 -26 -4 0
-10 -3 -13 -6 -4 -4 -25 -5 -47 -3 -30 3 -38 0 -32 -9 4 -6 8 -17 9 -23 1 -6
25 -64 53 -130 28 -66 51 -125 51 -131 0 -15 44 -63 58 -63 6 0 9 -6 7 -12 -3
-8 17 -21 53 -35 31 -12 58 -18 60 -13 2 5 10 6 18 3 8 -3 14 -1 14 4 0 5 19
8 43 7 56 -2 54 -1 77 -24 18 -18 18 -22 5 -66 -8 -26 -12 -51 -9 -55 7 -12
-47 -44 -69 -41 -13 3 -17 0 -12 -8 6 -9 2 -9 -12 -1 -11 6 -23 7 -27 4 -6 -6
-71 -6 -126 1 -50 7 -80 18 -80 31 0 8 -9 17 -20 20 -12 4 -29 16 -40 28 -36
37 -31 11 5 -29 19 -21 35 -42 35 -45 0 -3 19 -11 41 -18 l41 -13 -4 -49 c-7
-64 -30 -85 -93 -83 -48 2 -128 31 -120 44 3 5 -2 10 -10 14 -26 10 -27 -3 -8
-114 3 -19 7 -46 8 -60 1 -14 3 -25 5 -25 5 0 18 -124 26 -255 7 -121 10 -153
13 -160 4 -6 8 -48 16 -160 3 -47 8 -98 10 -115 11 -76 14 -115 16 -180 1 -38
8 -86 16 -105 8 -19 16 -40 17 -46 1 -5 12 -21 24 -34 12 -13 22 -30 22 -37 0
-7 5 -13 10 -13 6 0 10 -18 10 -40 0 -34 -3 -40 -21 -40 -11 0 -27 7 -35 15
-32 32 -78 15 -147 -52 -28 -27 -53 -5 -50 43 2 21 7 40 12 43 14 9 31 140 25
196 -2 28 -7 75 -10 105 -4 30 -6 65 -6 78 0 12 -3 22 -8 22 -4 0 -7 12 -8 28
0 40 -27 146 -56 231 -15 41 -25 79 -23 85 3 6 -2 23 -9 37 -17 33 -35 103
-39 149 -2 19 -8 53 -15 75 -6 22 -14 58 -16 80 -2 22 -9 55 -14 74 -5 19 -7
38 -4 43 3 5 0 22 -6 39 -14 34 -50 41 -50 9 0 -11 -4 -20 -10 -20 -5 0 -10
-7 -10 -15 0 -8 -4 -15 -10 -15 -5 0 -10 -9 -10 -20 0 -11 -4 -20 -10 -20 -5
0 -10 -11 -10 -25 0 -14 -3 -25 -7 -25 -11 0 -33 -50 -33 -72 0 -10 -4 -18
-10 -18 -5 0 -10 -11 -10 -24 0 -14 -7 -31 -15 -40 -8 -8 -15 -26 -15 -41 0
-14 -7 -58 -16 -97 -19 -84 -15 -317 5 -342 7 -8 10 -19 7 -25 -3 -5 -10 -53
-16 -107 -17 -166 -66 -224 -188 -224 -71 0 -187 33 -210 61 -9 10 -22 19 -29
19 -7 0 -13 9 -13 20 0 11 -3 19 -8 17 -23 -7 -79 94 -99 181 -3 12 -10 22
-16 22 -6 0 -8 3 -5 6 4 3 0 22 -9 42 -8 20 -30 75 -50 122 -19 47 -44 107
-55 134 -11 27 -26 74 -34 105 -8 30 -19 60 -24 66 -6 7 -7 14 -5 17 3 3 1 17
-4 31 -5 14 -12 45 -16 68 -7 50 -64 199 -77 199 -4 0 -8 7 -8 15 0 8 -4 15
-8 15 -5 0 -16 18 -25 41 -12 30 -20 38 -30 32 -19 -10 -102 -83 -173 -150
-53 -51 -110 -78 -140 -66 -8 3 -14 0 -14 -6 0 -6 -7 -8 -15 -5 -8 4 -15 2
-15 -2 0 -5 -14 -10 -32 -10 -18 -1 -34 -6 -36 -13 -2 -7 -9 -8 -21 -1 -10 5
-22 6 -25 2 -4 -4 -13 -7 -19 -8 -7 0 -20 -2 -29 -2 -9 -1 -32 -17 -51 -34
-31 -29 -35 -40 -40 -95 -5 -67 -21 -92 -52 -87 -24 4 -104 43 -90 44 11 1
-35 29 -48 30 -5 0 -5 -4 -2 -10 10 -16 -89 -4 -126 16 -18 9 -56 24 -84 33
l-50 16 3 45 c4 56 11 64 46 50 49 -18 99 -12 125 15 13 14 29 25 36 25 7 0
18 6 25 14 6 8 17 13 24 10 8 -3 21 2 30 11 9 9 20 13 26 10 5 -3 10 -2 10 4
0 6 7 8 15 5 8 -4 15 -2 15 4 0 5 6 9 13 8 7 0 48 31 91 71 43 40 81 72 85 71
17 -2 34 3 28 8 -4 4 8 18 26 33 18 14 53 45 78 67 24 23 63 59 87 81 23 22
42 42 42 46 0 10 78 80 101 91 10 5 19 17 19 28 0 10 5 18 10 18 6 0 10 6 10
13 0 21 47 61 55 47 5 -8 11 -8 17 -2 15 15 148 -29 148 -48 0 -3 19 -27 43
-52 57 -61 77 -86 77 -98 0 -6 3 -10 8 -10 4 0 23 -25 42 -55 19 -30 38 -55
41 -55 4 0 10 -12 13 -26 4 -14 20 -39 37 -55 16 -16 27 -34 24 -39 -3 -6 -2
-10 3 -10 5 0 12 -9 15 -21 3 -12 10 -18 16 -14 6 3 11 1 11 -4 0 -6 13 -32
29 -59 17 -26 40 -73 52 -105 12 -31 26 -57 30 -57 5 0 9 -7 9 -15 0 -8 5 -15
10 -15 11 0 30 -40 37 -75 6 -33 21 -41 38 -19 8 10 15 25 15 32 0 7 9 30 20
52 30 58 26 75 -19 93 -33 14 -42 24 -67 84 -16 37 -39 78 -51 91 -13 13 -23
29 -23 37 0 8 -4 15 -9 15 -10 0 -27 39 -23 53 1 4 -4 7 -11 7 -8 0 -20 19
-27 43 -8 23 -17 47 -20 52 -4 6 -15 33 -25 60 -10 28 -24 57 -31 65 -7 9 -17
27 -23 40 l-9 25 -7 -32 c-8 -36 -33 -44 -55 -18 -7 8 -21 15 -31 15 -11 0
-19 7 -19 15 0 8 -7 15 -15 15 -22 0 -32 92 -13 117 6 7 8 18 5 25 -2 8 -1 36
3 63 9 54 -9 146 -34 174 -7 9 -15 22 -17 28 -4 14 -79 -49 -79 -66 0 -5 -16
-22 -35 -37 -19 -14 -35 -30 -35 -35 0 -15 -55 -64 -73 -65 -23 -2 -73 76 -83
126 -5 29 -18 60 -24 60 -4 0 -4 17 0 38 6 26 25 52 64 89 31 29 56 57 56 62
0 5 11 18 25 29 14 11 25 24 25 29 0 6 9 18 20 28 12 10 18 24 16 32 -3 7 8
22 24 33 42 30 43 83 1 104 -16 9 -31 13 -34 10 -8 -9 -29 35 -22 46 3 6 -1
10 -9 10 -9 0 -16 6 -16 13 0 7 -9 19 -20 27 -11 8 -20 20 -20 27 0 7 -4 13
-10 13 -5 0 -10 6 -10 14 0 8 -6 21 -13 28 -6 7 -21 30 -32 51 -11 20 -23 37
-27 37 -5 0 -8 6 -8 13 0 6 -13 28 -30 47 -16 19 -27 36 -25 39 3 2 1 9 -4 15
-5 6 -11 25 -14 41 -7 47 -40 104 -59 105 -17 0 -24 21 -19 58 3 19 -19 82
-29 82 -4 0 -11 11 -14 25 -4 14 -11 25 -16 25 -6 0 -10 7 -10 15 0 8 -7 15
-15 15 -8 0 -15 6 -15 13 0 7 -9 23 -20 35 -11 12 -20 26 -20 32 0 5 -7 10
-15 10 -8 0 -15 7 -15 15 0 8 0 17 0 20 0 2 -12 16 -25 31 -13 14 -27 35 -30
45 -4 11 -11 19 -16 19 -5 0 -9 7 -9 15 0 8 -4 15 -10 15 -5 0 -10 7 -10 15 0
8 -4 15 -10 15 -5 0 -12 11 -16 25 -3 14 -13 25 -21 25 -11 0 -14 6 -9 23 3
12 6 37 6 55 0 35 15 41 53 21z m5652 -329 c3 -5 21 -10 39 -10 28 0 41 -9 75
-47 23 -27 51 -63 62 -81 10 -18 23 -31 28 -28 14 9 115 10 141 2 14 -5 40
-22 59 -40 46 -43 131 -169 146 -217 4 -13 18 -45 30 -71 13 -26 31 -72 40
-103 11 -34 23 -55 33 -55 10 0 13 -7 10 -25 -3 -14 -1 -28 3 -31 5 -3 9 -14
9 -25 0 -10 5 -19 10 -19 6 0 10 -7 10 -16 0 -8 11 -35 25 -60 14 -24 24 -47
24 -50 -3 -11 65 -189 73 -192 14 -6 9 -27 -11 -44 -11 -9 -39 -19 -62 -21
-36 -4 -58 -18 -59 -38 0 -14 -50 5 -71 27 -12 13 -27 24 -33 24 -13 0 -101
92 -110 115 -3 10 -9 15 -13 11 -12 -11 -61 44 -56 64 3 12 -2 20 -16 25 -12
3 -21 11 -21 16 0 6 -4 7 -10 4 -5 -3 -10 3 -10 15 0 12 -4 18 -11 15 -13 -9
-61 43 -53 57 4 6 2 8 -3 5 -7 -5 -11 12 -12 49 0 47 3 56 21 63 15 5 18 10
10 15 -7 4 -27 -2 -45 -13 -18 -11 -41 -18 -52 -17 -11 2 -25 -1 -31 -5 -7 -6
-23 -5 -40 2 -16 7 -39 11 -51 11 -15 -1 -24 7 -32 28 -5 17 -14 30 -19 30
-11 0 -24 34 -26 65 -1 11 -7 19 -15 17 -7 -2 -22 5 -32 14 -16 15 -19 15 -19
2 0 -9 -8 -26 -18 -38 l-18 -22 -37 41 -37 41 -7 -28 c-3 -15 -19 -38 -33 -52
-28 -25 -80 -39 -80 -21 0 5 -6 11 -14 14 -10 4 -12 0 -9 -14 5 -18 2 -21 -29
-23 -19 -1 -34 -18 -40 -43 -5 -20 -4 -22 15 -12 12 7 30 19 40 27 16 14 20
14 27 2 7 -12 12 -11 30 5 20 18 21 18 35 -1 8 -10 15 -27 15 -36 0 -9 9 -23
21 -32 15 -10 19 -20 14 -36 -6 -18 -3 -21 17 -20 44 4 57 0 63 -20 4 -11 11
-18 16 -15 5 4 12 0 15 -9 3 -8 12 -17 20 -20 9 -3 12 -1 9 4 -9 14 2 12 38
-7 18 -9 37 -17 44 -17 6 -1 23 -11 37 -24 19 -16 43 -23 84 -26 31 -2 64 -7
73 -11 10 -3 20 -1 24 4 3 6 11 9 16 6 5 -4 9 2 9 12 1 17 1 17 14 1 7 -10 16
-15 20 -11 8 9 66 -47 66 -64 0 -7 4 -13 10 -13 5 0 13 -12 16 -26 5 -18 12
-24 25 -21 13 4 22 -5 35 -37 9 -22 19 -36 21 -29 3 7 23 -6 50 -33 25 -24 50
-44 55 -44 5 0 18 -21 29 -46 19 -41 19 -47 5 -62 -8 -10 -29 -31 -45 -49 -16
-18 -42 -35 -58 -39 -15 -4 -37 -17 -49 -30 -16 -18 -23 -21 -32 -12 -9 9 -12
7 -12 -11 0 -12 -4 -19 -10 -16 -6 3 -13 -1 -16 -9 -3 -9 -10 -13 -15 -10 -5
3 -9 2 -9 -3 0 -4 -11 -16 -25 -25 -18 -14 -30 -16 -49 -8 -17 6 -26 6 -28 -2
-2 -6 -25 -12 -52 -13 -26 0 -50 -6 -54 -11 -9 -13 -59 -11 -95 4 -16 7 -41
12 -56 12 -15 0 -31 4 -37 10 -5 5 -20 11 -33 13 -12 2 -27 10 -32 18 -5 8 -9
11 -9 7 0 -11 -73 22 -104 49 -15 13 -43 30 -60 37 -17 7 -51 39 -76 71 -25
33 -55 70 -67 83 -12 13 -25 33 -28 43 -4 11 -11 19 -16 19 -5 0 -9 6 -9 14 0
13 -29 75 -40 86 -13 13 -30 52 -30 68 0 18 -51 122 -72 149 -5 6 -8 17 -7 25
3 18 -26 80 -34 72 -3 -4 -11 6 -18 22 -15 40 12 94 44 86 12 -3 27 -9 33 -14
7 -5 16 -2 24 7 18 22 36 -2 38 -49 2 -55 9 -56 17 -2 4 25 12 46 19 46 6 0
-7 9 -29 20 -64 32 -104 58 -129 85 -13 14 -30 25 -37 25 -14 0 -69 104 -69
129 0 21 23 38 45 33 17 -3 22 1 21 20 -1 17 5 24 22 26 12 2 22 9 22 15 0 16
39 49 49 42 5 -3 12 2 15 11 4 9 9 14 12 11 9 -9 122 52 137 73 8 11 23 21 35
23 11 2 35 15 54 30 18 15 38 25 45 23 7 -3 25 1 40 9 15 8 33 15 40 15 6 0
28 9 47 21 19 11 45 22 58 24 13 3 37 9 53 14 40 12 43 13 50 1z m-971 -1049
c9 -7 16 -10 16 -6 0 4 6 3 13 -2 6 -6 25 -13 40 -17 16 -4 38 -16 49 -26 12
-11 36 -24 55 -31 18 -6 33 -17 33 -25 0 -8 6 -14 14 -14 7 0 25 -12 40 -27
14 -14 29 -23 32 -20 3 3 18 -6 33 -21 14 -15 40 -34 56 -42 17 -8 35 -22 42
-30 7 -8 13 -12 13 -7 0 4 9 -1 20 -10 10 -10 30 -28 43 -39 13 -12 34 -27 45
-33 12 -7 22 -19 22 -27 0 -8 5 -12 10 -9 6 4 10 -6 10 -22 0 -18 -13 -42 -35
-67 -20 -21 -38 -50 -42 -65 -9 -36 -25 -49 -75 -60 -46 -11 -158 -11 -158 -1
0 12 -29 7 -34 -5 -5 -14 -53 -8 -62 7 -3 5 0 17 7 26 13 16 12 16 -6 0 -24
-19 -55 -26 -72 -15 -7 5 -13 4 -13 -2 0 -5 -13 -9 -30 -9 -16 1 -30 5 -30 10
0 4 -6 7 -12 6 -7 -2 -12 5 -12 15 1 9 -4 17 -12 17 -18 0 -18 38 1 74 20 37
19 40 -5 18 -10 -10 -26 -33 -34 -53 -8 -19 -24 -43 -35 -53 -12 -11 -21 -25
-21 -32 0 -7 -16 -21 -36 -30 -20 -9 -41 -25 -47 -35 -10 -16 -12 -16 -36 -1
-13 9 -29 17 -35 18 -6 0 -16 2 -22 2 -7 1 -15 12 -19 25 -8 22 -8 22 -12 1
-4 -19 -8 -21 -38 -14 -26 6 -32 5 -28 -6 3 -8 9 -14 14 -14 13 0 11 -48 -3
-56 -21 -13 -68 -14 -90 -3 -18 9 -20 9 -15 -4 14 -37 18 -85 8 -91 -6 -4 -11
-17 -11 -29 -1 -13 -16 -34 -38 -51 -23 -18 -38 -39 -39 -54 0 -14 -6 -28 -13
-32 -6 -4 -12 -11 -12 -16 0 -5 -3 -15 -6 -22 -2 -7 0 -18 6 -24 6 -6 17 5 33
36 12 25 28 46 36 46 7 0 12 3 11 8 -3 16 18 47 32 47 8 0 21 -8 29 -18 7 -10
20 -16 28 -13 9 4 17 -1 20 -13 5 -19 7 -18 36 9 22 21 34 26 39 17 5 -9 12
-9 25 -1 10 6 26 10 35 8 11 -1 15 3 11 12 -3 8 1 14 11 14 19 0 57 20 71 38
6 7 15 13 20 12 37 -8 65 5 109 48 27 26 54 47 60 47 6 0 15 17 20 38 6 24 14
36 23 33 7 -3 15 -1 18 4 8 13 62 13 69 1 3 -5 15 -7 26 -4 14 4 20 0 20 -11
0 -20 16 -21 24 -1 9 25 40 17 64 -18 l22 -32 -6 32 -6 32 55 0 c31 -1 60 2
65 5 5 3 21 0 36 -7 26 -12 27 -14 21 -67 -4 -30 -15 -70 -26 -88 -10 -18 -19
-39 -19 -46 0 -8 -7 -19 -15 -26 -8 -7 -15 -21 -15 -31 0 -11 -9 -28 -20 -39
-11 -11 -17 -26 -14 -35 4 -8 1 -21 -5 -29 -6 -7 -8 -16 -4 -19 3 -4 -1 -7
-11 -7 -9 0 -15 -4 -12 -8 7 -11 -18 -94 -26 -87 -3 4 -27 -21 -53 -54 -25
-34 -50 -61 -56 -61 -5 0 -9 -9 -9 -20 0 -11 -4 -20 -8 -20 -4 0 -25 -16 -46
-35 -21 -19 -44 -35 -51 -35 -7 0 -15 -7 -19 -15 -3 -8 -23 -22 -46 -31 -22
-9 -40 -21 -40 -26 0 -5 -6 -8 -12 -5 -7 2 -20 -1 -28 -8 -18 -16 -90 -36
-102 -29 -4 3 -8 0 -8 -5 0 -6 -9 -11 -19 -11 -11 0 -23 -5 -26 -10 -4 -6 -11
-8 -16 -4 -5 3 -16 0 -24 -6 -10 -8 -19 -9 -27 -3 -7 6 -20 10 -28 10 -44 1
-115 15 -121 24 -3 6 -10 11 -15 11 -17 0 -84 30 -84 37 0 4 -8 7 -18 8 -10 1
-34 17 -55 36 -20 20 -52 41 -72 47 -19 6 -35 18 -35 25 0 7 -13 18 -30 24
-16 5 -30 7 -30 4 0 -3 -6 0 -13 6 -8 6 -17 8 -20 4 -4 -3 -7 14 -7 39 0 38 4
49 25 62 14 9 29 14 34 11 5 -2 12 6 15 20 4 16 13 25 26 25 11 0 19 -5 17
-11 -1 -6 4 -14 11 -16 10 -4 12 4 6 33 -4 22 -8 40 -9 42 -2 2 -17 -4 -34
-12 -16 -9 -37 -16 -45 -16 -8 0 -16 -4 -18 -9 -1 -4 -34 -11 -71 -15 -63 -6
-70 -4 -102 20 -40 30 -45 63 -14 82 15 10 19 20 15 37 -4 14 0 29 8 37 15 16
31 74 27 101 -1 9 3 17 8 17 6 0 11 6 11 13 0 6 11 25 25 41 14 16 25 36 25
43 0 8 9 26 20 40 11 14 23 43 26 65 4 21 10 38 15 38 5 0 9 5 9 12 0 6 6 19
13 27 8 9 19 35 26 59 7 24 19 46 27 49 8 3 14 12 14 20 0 8 6 20 13 28 34 36
48 59 53 85 4 16 12 31 20 34 8 3 14 12 14 21 0 8 4 15 10 15 5 0 17 14 26 32
19 37 38 58 52 58 6 0 12 4 14 9 5 14 88 62 88 51 0 -5 15 -10 34 -10 19 0 47
-5 62 -10 25 -10 31 -7 75 42 27 29 49 56 49 61 0 4 9 7 19 7 10 0 21 6 24 13
6 17 109 16 131 -2z m2179 -241 c30 -8 52 -20 60 -34 6 -12 27 -45 46 -74 l34
-51 61 1 c34 0 71 -2 84 -6 30 -10 111 -94 118 -123 4 -13 10 -23 15 -23 5 0
9 -5 9 -10 0 -6 11 -27 24 -48 12 -20 26 -48 30 -62 8 -28 28 -72 36 -80 7 -7
50 -142 50 -157 0 -7 7 -13 15 -13 11 0 15 -9 13 -28 -1 -15 6 -42 15 -61 9
-19 17 -42 17 -52 0 -10 5 -21 10 -24 6 -3 10 -15 10 -26 0 -10 5 -19 10 -19
6 0 10 -7 10 -15 0 -8 11 -48 25 -89 14 -41 25 -84 25 -96 0 -12 5 -18 10 -15
16 10 12 -31 -4 -44 -8 -7 -36 -14 -62 -16 -25 -3 -51 -11 -58 -19 -10 -14
-15 -14 -43 0 -42 21 -113 82 -113 98 0 7 -11 19 -25 26 -14 7 -25 22 -25 32
0 11 -7 18 -19 18 -11 0 -28 15 -40 36 -18 30 -19 39 -9 52 9 11 10 14 1 9
-18 -11 -63 22 -63 45 0 11 -4 16 -11 13 -6 -4 -18 1 -27 11 -45 50 -54 140
-16 159 15 7 18 13 10 21 -8 8 -19 5 -41 -10 -31 -22 -51 -26 -72 -13 -6 4
-13 2 -15 -5 -3 -7 -11 -9 -24 -3 -22 9 -42 14 -66 17 -10 1 -18 8 -18 15 0 7
-4 13 -10 13 -5 0 -10 9 -10 20 0 11 -4 20 -10 20 -5 0 -10 7 -10 15 0 8 -5
15 -11 15 -7 0 -9 10 -5 24 3 14 2 28 -4 31 -5 3 -10 1 -10 -6 0 -7 -12 -2
-26 12 l-26 24 7 -24 c5 -16 4 -21 -4 -17 -6 4 -11 1 -11 -8 0 -29 -25 -22
-57 17 -18 21 -33 45 -33 53 0 28 -15 13 -17 -16 -3 -53 -6 -61 -20 -56 -7 3
-13 -1 -13 -9 0 -18 -33 -28 -70 -20 -19 4 -30 3 -30 -4 0 -6 -9 -11 -21 -11
-11 0 -26 -6 -33 -12 -17 -18 -27 -48 -16 -48 18 0 60 24 60 34 0 6 7 3 15 -7
13 -18 14 -18 34 2 19 19 26 15 22 -11 0 -4 6 -5 14 -2 11 5 15 -1 15 -19 0
-14 7 -30 16 -35 9 -5 17 -21 17 -36 0 -19 4 -26 16 -25 35 3 51 -2 51 -15 0
-8 14 -23 30 -33 17 -9 30 -22 30 -28 0 -5 5 -3 10 5 6 9 10 11 10 3 0 -7 7
-10 15 -6 9 3 22 -2 29 -12 7 -10 18 -15 24 -11 7 4 12 3 12 -2 0 -5 11 -14
25 -20 14 -6 25 -17 25 -24 0 -9 19 -14 56 -16 31 -1 64 -6 73 -11 11 -6 23
-4 35 5 12 8 25 10 35 5 9 -5 19 -8 23 -8 8 2 48 -48 48 -61 0 -5 7 -15 15
-22 8 -7 15 -21 15 -31 0 -12 7 -19 19 -19 21 0 37 -16 43 -45 2 -11 9 -19 16
-18 13 3 110 -89 134 -128 14 -21 14 -29 2 -55 -7 -16 -21 -39 -32 -51 -21
-24 -89 -56 -103 -47 -5 3 -9 -2 -9 -10 0 -16 -34 -31 -49 -22 -5 3 -7 -4 -3
-16 4 -17 2 -20 -11 -15 -11 4 -17 1 -17 -9 0 -9 -5 -12 -11 -8 -6 3 -14 3
-18 -2 -12 -18 -61 -44 -61 -34 0 9 -47 9 -70 0 -3 -1 -20 -1 -37 0 -19 1 -33
-3 -33 -10 0 -7 -8 -9 -21 -5 -12 4 -27 8 -33 10 -6 1 -24 5 -40 10 -16 4 -41
8 -55 9 -14 1 -37 9 -51 19 -13 9 -30 17 -37 17 -7 0 -13 5 -13 10 0 6 -6 10
-12 9 -20 -2 -58 12 -58 22 0 9 -90 74 -104 74 -6 0 -29 25 -53 55 -24 30 -53
66 -64 78 -10 13 -19 30 -19 38 0 8 -4 14 -9 14 -11 0 -78 123 -88 158 -3 13
-11 26 -18 28 -7 3 -13 20 -12 40 1 38 -15 60 -34 48 -7 -4 -27 -9 -43 -11
-17 -2 -34 -7 -38 -11 -9 -9 124 -152 141 -152 31 0 -4 -71 -56 -113 -13 -10
-23 -30 -23 -43 0 -15 -4 -23 -10 -19 -6 4 -16 2 -23 -3 -7 -5 -21 -8 -32 -6
-10 1 -25 -2 -33 -8 -8 -8 -16 -8 -20 -2 -4 5 -14 9 -22 9 -8 -1 -20 3 -27 8
-7 5 -22 6 -34 2 -16 -5 -19 -4 -14 5 6 10 1 11 -19 6 -37 -9 -69 10 -62 37 5
21 4 21 -9 4 -10 -14 -19 -17 -37 -11 -13 5 -30 9 -38 9 -37 1 -81 18 -77 28
2 7 -3 20 -11 30 -13 15 -14 22 -4 37 7 11 12 25 12 31 0 15 -30 -9 -30 -25
-1 -21 -79 -94 -110 -101 -16 -4 -30 -11 -30 -16 0 -15 -19 -10 -37 9 -10 9
-25 17 -33 17 -8 0 -19 10 -25 23 -11 24 -31 31 -21 7 4 -12 0 -14 -19 -9 -21
5 -24 3 -22 -23 4 -40 -13 -53 -57 -43 -36 8 -36 8 -36 -24 0 -18 -5 -37 -12
-44 -7 -7 -8 -12 -3 -12 5 0 -6 -16 -25 -35 -19 -19 -40 -35 -47 -35 -7 0 -10
-6 -7 -14 3 -7 -2 -21 -11 -30 -9 -9 -13 -16 -8 -16 4 0 0 -7 -11 -15 -12 -9
-16 -20 -12 -31 5 -14 11 -12 31 16 14 19 25 41 26 49 0 11 2 12 6 4 2 -7 9
-13 14 -13 4 0 6 7 3 15 -14 35 105 19 119 -17 4 -10 9 -8 20 5 15 18 47 24
47 8 0 -5 13 -3 28 5 16 7 42 15 58 17 17 2 35 7 42 11 7 4 25 6 40 5 24 -2
76 22 109 50 7 6 19 11 28 11 8 0 15 7 15 15 0 8 5 15 10 15 6 0 10 8 10 18 0
24 87 31 96 7 3 -8 11 -12 17 -8 5 3 17 -3 25 -13 10 -13 16 -15 19 -6 7 18
30 14 46 -8 11 -16 16 -18 20 -7 4 11 16 13 57 6 29 -4 55 -7 59 -6 3 1 16 -7
29 -18 22 -19 29 -45 15 -59 -4 -3 -8 -13 -9 -21 -4 -25 -48 -107 -61 -112 -7
-3 -13 -14 -13 -24 0 -10 -9 -24 -20 -31 -13 -9 -18 -19 -14 -35 5 -17 2 -23
-10 -23 -10 0 -13 -6 -10 -15 4 -8 1 -15 -5 -15 -5 0 -16 -18 -22 -40 -7 -21
-15 -37 -19 -35 -4 3 -39 -26 -77 -63 -72 -71 -157 -127 -208 -136 -16 -3 -31
-10 -33 -15 -2 -6 -10 -7 -18 -4 -8 3 -20 1 -27 -5 -6 -5 -53 -13 -103 -16
-92 -7 -105 -5 -204 36 -34 14 -41 18 -94 56 -26 17 -51 32 -57 32 -5 0 -9 6
-9 13 0 18 -49 64 -82 76 -16 6 -28 17 -28 25 0 7 -11 21 -25 30 -14 9 -25 14
-25 11 0 -3 -9 4 -20 15 -14 14 -18 27 -14 50 4 16 13 30 20 30 8 0 14 5 14
10 0 6 7 10 15 10 9 0 18 6 21 14 3 7 16 14 29 14 15 0 22 -5 19 -13 -3 -7 -1
-16 5 -20 7 -4 11 8 11 35 0 39 -1 40 -27 34 -16 -4 -32 -11 -37 -15 -16 -14
-116 -11 -117 4 0 10 -2 10 -6 0 -5 -14 -33 -18 -33 -5 0 4 -13 16 -29 27 -24
16 -30 26 -29 57 0 20 3 37 7 36 24 -3 31 4 25 27 -4 18 -1 27 10 31 9 3 16
17 16 30 0 13 5 24 11 24 6 0 8 7 5 16 -3 9 4 24 17 37 32 32 107 146 107 163
0 8 10 25 21 37 12 12 30 41 41 65 11 24 26 46 34 49 8 3 14 9 14 14 0 5 16
25 35 45 19 19 35 41 35 49 0 7 18 30 40 51 22 22 40 44 40 51 0 6 10 15 23
18 40 12 77 30 77 37 0 5 9 8 20 8 11 0 20 -4 20 -10 0 -5 10 -10 23 -10 13 0
28 -5 33 -10 24 -24 60 -20 89 10 16 17 34 30 40 30 6 0 17 8 24 18 9 13 28
19 62 21 27 1 49 -2 49 -6 0 -7 71 -43 85 -43 3 0 13 -8 23 -17 44 -43 95 -83
103 -83 5 0 9 -5 9 -11 0 -13 60 -64 74 -64 6 0 11 -4 11 -10 0 -15 43 -55 59
-55 8 0 18 5 22 11 4 7 21 9 44 5 55 -9 69 12 40 60 -13 20 -24 50 -26 67 -2
18 -13 39 -23 48 -11 9 -23 32 -26 52 -6 28 -3 39 14 56 11 11 23 16 25 12 8
-13 54 -19 64 -9 17 17 42 -3 43 -36 1 -21 3 -25 6 -11 3 11 9 25 14 31 9 11
-28 44 -51 44 -5 0 -10 4 -10 9 0 5 -9 12 -19 16 -11 3 -38 24 -60 45 -23 22
-45 40 -49 40 -7 0 -19 25 -47 100 -11 30 -11 37 2 52 12 14 19 15 30 7 16
-14 28 -5 28 19 0 10 8 17 19 17 11 0 22 7 24 15 5 15 41 45 55 45 4 0 12 7
17 15 6 10 10 11 10 3 0 -9 11 -6 35 7 20 11 42 20 50 20 9 0 29 12 46 27 17
15 36 28 42 29 29 3 35 5 57 26 13 12 35 23 49 24 53 4 94 13 100 23 9 14 62
33 77 27 8 -3 30 1 51 8 21 8 43 10 48 6 6 -5 32 -14 58 -20z m-3627 -1280
c45 0 59 -5 87 -30 18 -16 42 -48 51 -72 10 -24 24 -55 32 -70 8 -14 14 -31
14 -38 0 -7 6 -26 14 -43 37 -82 56 -126 56 -132 0 -4 6 -21 14 -38 7 -18 25
-61 40 -97 15 -36 31 -73 37 -82 5 -10 9 -23 9 -29 0 -6 17 -53 39 -103 21
-50 51 -122 66 -161 35 -87 67 -131 99 -137 32 -6 47 10 84 93 34 75 107 288
117 339 3 19 10 44 15 55 5 11 23 76 40 145 33 129 67 208 109 249 53 51 165
69 288 47 72 -12 87 -19 110 -47 76 -88 82 -148 24 -253 -44 -81 -50 -109 -62
-291 -9 -132 -29 -398 -49 -650 -6 -77 -15 -192 -20 -255 -18 -221 -31 -346
-47 -447 -15 -96 -15 -112 1 -235 10 -73 27 -164 38 -203 18 -63 34 -100 98
-240 58 -125 64 -181 29 -259 -26 -60 -57 -80 -123 -80 -97 1 -160 23 -326
115 -14 8 -50 32 -80 54 -30 22 -66 48 -80 57 -14 8 -57 45 -97 82 -153 142
-161 265 -23 336 34 17 57 61 77 144 19 80 47 222 59 296 2 14 8 88 14 165 6
77 15 160 19 183 5 24 5 56 0 70 -5 15 -11 43 -14 62 -17 112 -56 62 -120
-155 -12 -44 -26 -96 -30 -115 -3 -19 -10 -46 -14 -60 -5 -14 -14 -45 -21 -70
-7 -25 -16 -56 -21 -70 -4 -14 -13 -44 -19 -68 -20 -80 -81 -90 -114 -19 -24
51 -74 190 -127 348 -54 165 -117 339 -129 354 -4 6 -11 24 -14 42 -9 38 -30
58 -52 49 -15 -6 -16 -18 -10 -94 18 -237 89 -611 129 -684 16 -30 28 -39 56
-43 20 -4 43 -10 51 -14 44 -24 54 -130 18 -198 -33 -60 -113 -150 -156 -174
-73 -40 -87 -47 -112 -57 -14 -5 -38 -16 -54 -23 -23 -11 -30 -11 -33 -1 -3 6
-10 12 -16 12 -6 0 -19 8 -30 18 -19 17 -20 16 -6 -8 8 -14 20 -33 27 -42 8
-9 21 -30 30 -47 9 -16 36 -50 59 -74 22 -24 54 -68 70 -98 24 -46 28 -65 28
-132 -1 -74 -2 -79 -33 -110 l-32 -32 -331 -2 c-310 -3 -332 -2 -368 17 -74
37 -119 109 -128 205 -8 91 25 172 85 204 18 10 22 20 22 64 0 46 -4 56 -31
80 -17 15 -36 27 -43 28 -6 0 -20 3 -31 6 -53 13 -199 15 -243 3 -80 -22 -135
-92 -117 -149 3 -11 26 -29 50 -41 98 -47 135 -105 135 -211 0 -125 -76 -216
-270 -322 -52 -28 -62 -30 -161 -30 -58 1 -115 4 -127 7 -26 9 -68 95 -77 158
-8 59 16 119 69 170 48 46 56 76 67 233 19 285 45 441 140 840 26 109 43 201
55 295 8 61 43 191 79 290 75 212 80 246 95 611 8 197 14 256 29 301 27 78 58
121 116 160 47 30 55 33 133 32 53 0 86 -4 91 -12 4 -6 26 -18 50 -27 107 -37
184 -183 231 -439 5 -27 16 -221 25 -430 16 -386 26 -536 45 -681 17 -127 41
-266 56 -315 7 -25 18 -69 24 -99 6 -30 14 -59 19 -65 4 -6 14 -33 21 -61 15
-57 69 -175 100 -220 l21 -30 -8 30 c-11 44 -8 66 15 115 11 25 23 61 27 82 8
41 -13 257 -26 274 -5 6 -14 49 -19 95 -6 46 -17 122 -25 169 -8 47 -19 117
-24 155 -5 39 -21 143 -34 232 -14 90 -28 206 -32 258 -4 52 -11 98 -16 101
-5 3 -9 25 -9 48 0 24 -9 95 -20 157 -11 63 -23 134 -26 159 -3 25 -15 76 -27
114 -21 70 -56 116 -121 160 -46 30 -66 74 -66 142 0 51 4 66 28 96 31 41 115
86 173 94 22 3 52 10 67 15 15 5 60 6 101 4 41 -3 98 -5 127 -5z m3932 -309
c50 -26 78 -58 97 -110 39 -111 -6 -231 -103 -275 -42 -19 -74 -61 -96 -126
l-16 -45 23 26 c12 14 38 37 57 52 35 26 37 26 213 26 156 0 181 -2 210 -19
17 -10 53 -24 80 -31 26 -6 47 -14 47 -18 0 -8 54 -28 95 -35 17 -3 48 -14 71
-25 23 -11 52 -22 65 -25 50 -9 79 -18 79 -25 0 -5 19 -13 43 -20 151 -46 330
-184 391 -304 101 -200 63 -489 -95 -729 -43 -65 -79 -156 -79 -198 0 -42 39
-157 71 -210 52 -85 62 -170 62 -520 0 -173 -5 -358 -11 -410 -17 -142 -36
-483 -29 -511 3 -13 20 -45 37 -71 17 -26 34 -62 37 -81 10 -66 -58 -167 -124
-183 -22 -6 -99 -1 -143 9 -8 2 -39 15 -68 30 -110 57 -172 154 -212 330 -21
90 -22 114 -17 325 3 125 11 306 17 402 15 221 8 541 -14 630 -24 97 -45 137
-83 160 -40 23 -42 24 -66 6 -19 -15 -35 -63 -67 -201 -11 -44 -26 -107 -35
-140 -9 -33 -22 -85 -29 -115 -7 -30 -21 -82 -31 -115 -23 -77 -24 -181 -3
-215 40 -64 32 -143 -21 -200 -43 -46 -68 -50 -126 -20 -22 11 -45 20 -52 20
-25 0 -149 75 -220 132 -83 67 -151 146 -183 213 -18 37 -21 59 -18 110 5 75
29 109 84 119 62 12 90 46 149 181 26 59 55 155 75 250 25 122 27 397 5 609
-33 309 -37 344 -51 425 -13 81 -39 138 -72 164 -10 6 -30 28 -46 47 l-29 35
6 -35 c6 -33 11 -84 39 -425 17 -199 17 -674 0 -785 -19 -123 -51 -267 -74
-330 -25 -70 -61 -154 -69 -160 -3 -3 -27 -36 -52 -75 -50 -77 -147 -182 -217
-236 -24 -18 -52 -42 -62 -51 -10 -10 -34 -24 -53 -32 -20 -9 -43 -22 -51 -31
-9 -8 -23 -15 -32 -16 -9 0 -26 -3 -37 -6 -11 -2 -58 -7 -105 -10 -165 -10
-232 31 -310 192 -21 42 -25 68 -28 165 -2 64 1 140 8 170 32 152 50 284 50
366 0 119 -17 289 -34 328 -7 17 -16 54 -20 81 -9 56 -43 199 -56 230 -25 61
-53 122 -61 135 -5 8 -13 24 -18 35 -13 29 -171 199 -178 192 -2 -2 19 -46 45
-98 27 -52 53 -105 57 -119 4 -14 18 -47 30 -75 78 -174 155 -519 155 -692 -1
-129 -44 -322 -90 -403 -5 -8 -21 -37 -36 -65 -28 -53 -123 -178 -158 -208
-135 -118 -256 -233 -256 -243 0 -14 -68 -84 -81 -84 -6 0 -46 35 -89 78 -42
42 -120 119 -173 169 -220 213 -344 402 -439 669 -109 305 -150 900 -87 1249
48 265 99 402 174 475 34 33 40 35 103 35 58 0 77 -5 142 -38 103 -53 137 -74
206 -130 32 -26 74 -60 93 -75 128 -102 281 -261 328 -342 26 -45 63 -97 63
-88 0 2 -9 21 -20 43 -31 61 -28 175 7 246 39 78 157 192 272 264 9 5 30 19
46 30 48 33 150 75 182 75 33 0 76 -39 89 -80 12 -40 4 -99 -22 -156 -13 -29
-24 -65 -24 -79 0 -15 16 -88 36 -163 37 -142 40 -153 99 -417 46 -207 76
-491 74 -695 -2 -204 13 -392 35 -425 14 -21 24 -25 62 -25 41 0 49 4 89 47
25 26 45 55 45 65 0 9 4 19 9 22 9 6 50 121 57 161 32 180 40 397 25 678 -9
174 -17 241 -41 346 -38 168 -88 275 -147 314 -103 68 -118 240 -33 369 63 95
247 241 348 275 23 8 42 18 42 22 0 7 61 32 87 37 6 1 22 10 35 19 28 20 91
14 146 -14z m-6814 -181 c63 -9 143 -44 313 -134 44 -23 102 -8 138 37 77 96
99 104 164 63 59 -38 115 -108 136 -172 23 -70 32 -297 16 -384 -43 -230 -50
-254 -114 -362 -53 -90 -65 -99 -136 -105 -55 -5 -64 -3 -111 27 -35 22 -61
50 -84 89 -30 51 -44 82 -104 221 -70 164 -120 239 -173 259 -29 10 -91 0
-114 -19 -29 -24 -82 -156 -98 -245 -31 -171 -46 -275 -58 -388 -6 -61 -15
-121 -19 -132 -14 -32 -30 -251 -30 -407 1 -147 12 -273 28 -305 5 -10 15 -36
22 -58 11 -39 66 -126 82 -133 5 -2 14 -9 21 -15 15 -15 38 -15 55 -2 33 26
52 50 57 77 4 16 13 41 21 56 20 38 18 138 -2 154 -149 120 -184 192 -184 370
0 106 15 160 54 193 79 68 173 29 237 -97 44 -88 94 -118 193 -118 61 0 72 -4
151 -51 98 -59 127 -89 184 -191 84 -153 118 -299 92 -396 -14 -50 -68 -114
-112 -132 -27 -12 -36 -10 -76 9 -43 21 -46 21 -64 5 -11 -9 -19 -22 -19 -27
0 -25 -100 -159 -167 -224 -58 -56 -86 -75 -129 -89 -29 -9 -54 -20 -54 -25 0
-13 -60 -21 -162 -21 -80 1 -108 5 -139 21 -21 11 -50 23 -65 25 -32 6 -127
68 -179 118 -22 21 -43 38 -46 38 -10 0 -123 141 -145 180 -10 19 -22 37 -26
40 -9 7 -104 200 -113 230 -4 14 -11 30 -15 35 -6 10 -29 90 -66 240 -13 51
-18 125 -21 275 -4 201 -2 229 32 395 9 44 20 100 25 125 8 49 46 176 59 200
4 8 16 42 25 75 9 33 21 69 26 80 5 11 25 61 46 110 96 231 279 418 469 481
49 16 90 17 179 4z m1263 -971 c77 -2 84 -4 130 -38 66 -50 93 -106 93 -193 0
-82 -15 -110 -117 -214 -55 -56 -76 -88 -102 -150 -30 -70 -34 -89 -33 -169 0
-140 12 -345 22 -395 5 -25 14 -139 20 -255 15 -266 39 -412 80 -469 40 -55
60 -77 96 -102 46 -33 151 -84 172 -84 44 0 93 95 116 222 9 51 19 75 41 98
16 16 34 30 41 30 25 0 92 -75 104 -115 21 -72 24 -196 5 -297 -9 -51 -20 -97
-24 -103 -4 -5 -13 -27 -20 -48 -20 -59 -89 -174 -121 -200 -28 -24 -53 -27
-99 -12 -12 3 -21 10 -21 15 0 5 -13 11 -29 15 -17 3 -46 18 -65 33 -19 15
-47 35 -63 44 -15 10 -48 31 -73 47 -25 16 -67 37 -95 47 -27 9 -61 24 -75 33
-38 25 -239 20 -272 -6 -16 -13 -78 -33 -121 -40 -18 -3 -35 -9 -38 -14 -10
-17 -92 -36 -144 -34 -72 3 -91 11 -117 53 -19 32 -23 50 -22 127 0 116 24
165 123 253 121 108 137 169 127 497 -4 127 -11 268 -16 315 -5 47 -15 173
-24 280 -24 307 -31 352 -56 372 -11 9 -42 20 -68 23 -69 9 -101 24 -117 56
-19 36 -19 149 -1 192 24 55 111 127 176 146 25 7 59 18 75 23 17 5 84 12 150
15 66 3 122 8 125 10 3 3 39 2 80 -1 41 -3 112 -7 157 -7z m1590 -1711 c15 -7
31 -16 34 -21 3 -5 10 -8 15 -8 30 2 109 -42 180 -101 27 -23 50 -35 60 -31
10 4 17 -1 21 -15 3 -11 20 -28 39 -37 19 -9 34 -20 34 -24 0 -5 10 -11 23
-15 12 -3 23 -6 24 -6 1 0 15 -13 32 -28 85 -78 111 -99 117 -93 3 3 4 -12 1
-34 -3 -21 -11 -44 -19 -50 -24 -19 -58 -74 -58 -94 0 -21 -19 -32 -65 -38
-16 -3 -31 -9 -33 -14 -4 -11 -72 -12 -72 -1 0 5 -7 9 -15 9 -8 0 -15 -4 -15
-9 0 -4 -7 -8 -15 -8 -8 0 -15 5 -15 10 0 6 -7 10 -15 10 -8 0 -15 -4 -15 -10
0 -5 -13 -10 -30 -10 -24 0 -30 4 -30 21 0 15 -4 19 -12 12 -11 -8 -90 -10
-150 -5 -11 1 -18 10 -18 21 0 11 -5 23 -11 27 -6 4 -8 20 -4 40 7 41 -12 47
-21 7 -4 -16 -22 -47 -40 -70 -19 -23 -34 -46 -34 -51 0 -6 -14 -13 -30 -17
-17 -4 -35 -15 -40 -25 -11 -21 -39 -17 -53 6 -4 7 -13 11 -20 9 -15 -6 -30 4
-45 30 -11 19 -11 19 -12 -2 0 -18 -6 -23 -25 -23 -22 0 -25 -5 -25 -32 0 -18
-4 -38 -8 -43 -12 -18 -61 -16 -89 2 l-26 17 13 -23 c21 -41 5 -126 -30 -161
-17 -17 -35 -30 -39 -30 -5 0 -7 -10 -4 -21 4 -14 0 -26 -11 -34 -9 -7 -20
-30 -23 -51 -6 -36 -5 -38 11 -25 22 18 47 67 39 75 -4 3 4 6 16 6 12 0 20 4
16 10 -3 5 0 18 6 29 12 17 16 18 51 5 21 -7 42 -13 46 -13 4 0 9 -10 12 -22
6 -23 6 -23 26 5 15 21 30 28 67 32 34 3 56 12 74 30 14 14 31 23 39 20 8 -3
14 1 14 8 0 9 13 13 38 12 20 -1 44 6 53 14 9 8 25 22 35 31 10 9 27 26 36 37
11 13 24 19 33 15 11 -4 16 -1 14 8 -5 28 13 70 28 65 7 -3 16 1 19 9 8 20 63
20 71 -1 5 -13 8 -13 15 -2 7 10 12 8 25 -10 l17 -24 18 24 18 23 19 -22 c24
-28 31 -29 31 -3 0 15 7 20 24 20 14 0 28 -5 32 -11 4 -7 9 -7 13 -2 10 15 59
24 66 12 4 -5 17 -14 30 -19 l23 -9 -19 -72 c-11 -40 -24 -78 -29 -83 -6 -6
-10 -18 -10 -28 0 -10 -7 -21 -15 -24 -8 -4 -15 -14 -15 -24 0 -30 -11 -50
-27 -50 -11 0 -14 -7 -10 -21 3 -12 2 -29 -4 -38 -20 -36 -47 -119 -41 -127 4
-4 2 -4 -5 -1 -11 7 -83 -67 -83 -85 0 -5 -4 -7 -8 -4 -5 3 -15 -7 -23 -22
-15 -30 -37 -52 -94 -97 -21 -16 -43 -35 -49 -40 -6 -6 -31 -19 -56 -30 -25
-11 -47 -23 -50 -27 -9 -12 -60 -28 -108 -34 -26 -3 -52 -10 -59 -16 -7 -6
-13 -7 -13 -4 0 4 -9 2 -21 -4 -13 -7 -25 -8 -32 -2 -7 5 -19 9 -27 10 -34 0
-125 14 -135 20 -5 3 -16 7 -24 9 -8 1 -17 5 -20 10 -11 15 -50 33 -71 33 -13
0 -20 7 -20 18 0 13 -15 25 -45 38 -25 10 -45 22 -45 26 0 4 -9 8 -20 8 -11 0
-20 7 -20 15 0 8 -7 15 -15 15 -8 0 -15 5 -15 10 0 6 -11 10 -25 10 -14 0 -25
5 -25 11 0 5 -4 7 -10 4 -11 -7 -12 5 -4 57 4 21 10 35 15 32 5 -3 9 0 9 7 0
6 8 9 19 6 16 -4 21 2 26 24 8 34 45 42 45 10 0 -10 6 -24 14 -30 12 -10 13
-6 5 29 -5 23 -7 45 -4 51 9 13 -9 11 -47 -5 -55 -24 -71 -28 -113 -30 -22 -1
-46 -5 -52 -9 -7 -5 -31 3 -55 16 -36 20 -43 29 -44 54 -1 23 5 35 21 43 15 8
21 19 18 33 -3 12 5 44 16 70 12 27 19 53 16 57 -3 5 -1 11 5 15 5 3 10 15 10
26 0 10 4 19 10 19 5 0 19 21 31 48 12 26 30 58 40 71 11 13 19 38 19 57 0 18
4 34 8 36 17 7 50 65 56 101 4 23 13 37 21 37 14 0 19 11 13 26 -2 3 5 10 15
15 9 6 17 15 17 21 0 6 6 19 13 27 8 9 20 32 27 51 8 19 21 42 30 50 9 8 25
31 36 50 23 41 39 60 53 60 5 0 24 12 41 27 23 19 42 26 68 25 50 -2 96 -13
103 -24 6 -9 69 43 69 57 0 10 49 56 75 71 27 16 108 17 142 2z m-1395 -853
c18 -18 41 -45 51 -59 18 -26 46 -30 90 -11 47 20 146 -27 180 -85 10 -16 22
-30 28 -30 5 0 9 -9 9 -20 0 -11 5 -20 10 -20 6 0 14 -8 17 -17 4 -10 12 -22
18 -28 18 -17 99 -200 104 -235 0 -5 8 -10 16 -10 8 0 15 -8 15 -19 0 -28 63
-157 84 -172 5 -4 6 -11 3 -16 -3 -5 5 -28 19 -52 13 -24 24 -50 24 -58 0 -8
10 -33 22 -55 l23 -40 -23 -19 c-13 -10 -39 -21 -58 -25 -19 -3 -40 -14 -47
-23 -6 -9 -19 -15 -27 -15 -25 3 -60 16 -60 23 0 3 -14 12 -31 20 -18 8 -34
22 -36 32 -3 9 -18 23 -34 29 -18 8 -28 19 -27 29 2 9 -3 15 -11 13 -21 -4
-71 47 -64 66 4 9 2 13 -4 9 -12 -8 -53 25 -53 43 0 6 -5 10 -12 8 -6 -2 -24
10 -38 26 -32 37 -45 104 -24 124 17 15 19 42 3 42 -5 0 -8 -4 -4 -10 6 -10
-37 -36 -70 -42 -11 -1 -23 -7 -27 -13 -5 -7 -14 -6 -28 3 -11 6 -31 12 -44
12 -35 0 -56 10 -56 26 0 8 -9 24 -20 36 -11 12 -20 32 -20 45 0 17 -4 21 -16
16 -10 -4 -22 1 -29 11 -9 12 -15 14 -20 6 -4 -6 -4 -14 -1 -17 7 -8 -12 -43
-24 -43 -16 0 -70 52 -70 66 0 7 -5 16 -11 19 -6 4 -10 1 -8 -6 6 -45 -2 -89
-16 -89 -8 0 -15 -4 -15 -9 0 -14 -60 -22 -81 -10 -16 8 -20 7 -18 -3 3 -27
-1 -38 -16 -38 -8 0 -15 -5 -15 -10 0 -6 -6 -9 -12 -8 -7 2 -14 -7 -16 -18 -3
-18 1 -21 22 -17 15 3 26 11 26 19 0 18 20 28 32 16 8 -8 15 -6 25 3 11 11 18
12 32 3 11 -6 17 -17 15 -23 -3 -6 7 -21 22 -34 15 -13 23 -29 20 -37 -4 -11
2 -14 29 -11 27 3 36 0 40 -14 4 -11 12 -19 20 -19 7 0 21 -7 29 -16 9 -8 16
-11 16 -5 0 13 52 3 61 -12 4 -5 11 -7 17 -3 6 3 23 -5 37 -19 25 -22 34 -24
108 -21 64 2 83 6 93 21 8 10 14 13 14 7 0 -7 8 -12 18 -12 32 -1 62 -33 92
-99 6 -13 16 -21 24 -18 22 8 33 -6 44 -53 7 -33 10 -38 11 -17 1 35 13 34 45
-4 14 -17 26 -28 26 -24 0 3 14 -3 30 -15 17 -12 30 -28 30 -36 0 -8 5 -14 10
-14 14 0 12 -36 -2 -62 -17 -29 -56 -65 -93 -85 -16 -9 -36 -24 -42 -34 -9
-11 -20 -15 -35 -11 -21 5 -22 4 -9 -11 12 -15 11 -17 -8 -17 -12 0 -20 -4
-16 -10 3 -5 -8 -16 -24 -25 -17 -8 -35 -23 -40 -32 -6 -10 -11 -12 -11 -6 0
15 -35 12 -52 -5 -7 -7 -26 -12 -43 -12 -17 0 -36 -5 -42 -11 -11 -11 -50 -9
-158 6 -27 4 -58 8 -67 8 -10 1 -18 7 -18 15 0 7 -6 12 -12 10 -17 -4 -108 31
-108 42 0 6 -26 18 -52 24 -3 0 -10 4 -14 9 -4 4 -16 7 -26 7 -10 0 -18 7 -18
15 0 8 -20 34 -45 58 -25 24 -45 49 -45 55 0 5 -6 12 -14 15 -7 3 -27 31 -42
62 -16 32 -35 60 -41 62 -7 3 -13 14 -13 24 0 10 -5 19 -11 19 -6 0 -9 6 -6
13 4 13 -28 81 -62 132 -12 17 -21 37 -21 46 0 9 -10 27 -22 41 -13 13 -30 37
-38 52 -13 25 -13 29 3 37 9 6 17 17 17 24 0 18 41 20 59 3 10 -11 14 -9 23 5
9 18 11 18 29 1 14 -13 16 -20 8 -31 -9 -10 -8 -13 4 -13 9 0 16 12 19 29 4
30 -2 35 -60 47 -7 1 -28 14 -47 28 -18 14 -38 26 -44 26 -6 0 -11 5 -11 10 0
6 -8 14 -17 17 -25 10 -43 29 -43 46 0 8 -6 20 -14 26 -23 19 -25 67 -3 81 16
9 21 9 28 -1 5 -9 10 -5 14 14 4 15 12 27 17 27 13 0 58 47 58 61 0 5 7 9 15
9 8 0 15 5 15 10 0 6 9 10 20 10 11 0 28 9 37 20 10 11 23 20 31 20 7 0 29 16
49 35 20 19 39 32 43 30 5 -3 23 11 41 30 19 19 40 33 47 30 8 -3 26 4 42 15
15 11 33 20 39 20 7 0 21 9 33 20 12 10 25 17 30 14 4 -3 8 0 8 5 0 6 8 11 19
11 10 0 33 6 51 14 48 20 129 -3 172 -49z m1329 -829 l64 -64 36 17 c53 26
131 20 170 -13 17 -14 35 -26 40 -26 5 0 14 -11 19 -25 5 -14 14 -25 20 -25 5
0 10 -5 10 -10 0 -6 11 -22 25 -36 14 -14 32 -39 41 -57 9 -18 30 -51 46 -74
16 -24 27 -43 24 -43 -3 0 3 -16 14 -35 11 -20 20 -42 20 -50 0 -8 7 -15 15
-15 8 0 15 -7 15 -16 0 -14 27 -71 40 -84 3 -3 14 -22 24 -42 11 -21 23 -38
28 -38 4 0 8 -6 8 -13 0 -7 23 -59 51 -115 27 -56 47 -107 44 -112 -9 -14 -81
-50 -99 -50 -9 0 -18 -10 -21 -23 -6 -23 -35 -30 -51 -14 -4 4 -16 7 -26 7
-10 0 -18 5 -18 10 0 6 -7 10 -16 10 -8 0 -32 16 -52 35 -20 19 -42 35 -48 35
-7 0 -14 9 -17 20 -3 14 -10 18 -21 14 -11 -4 -26 4 -42 21 -21 23 -23 29 -12
42 11 14 10 15 -7 10 -14 -5 -29 1 -47 17 -14 14 -29 22 -32 19 -7 -8 -46 32
-46 47 0 5 -4 10 -9 10 -6 0 -13 21 -17 47 -5 36 -3 49 9 58 10 7 12 16 7 24
-6 11 -9 11 -16 -1 -14 -23 -84 -62 -84 -47 0 8 -7 4 -15 -8 -13 -19 -19 -20
-45 -11 -23 7 -34 7 -45 -2 -13 -10 -18 -6 -30 24 -9 20 -19 34 -24 32 -5 -3
-13 7 -19 22 -28 74 -25 69 -29 49 -4 -17 -7 -17 -30 5 -25 23 -25 23 -19 1 4
-12 2 -24 -4 -28 -6 -3 -8 -10 -6 -14 3 -4 -4 -7 -14 -8 -11 -1 -22 3 -25 8
-4 5 -10 7 -15 4 -5 -3 -20 11 -34 32 l-26 38 0 -50 c0 -40 -5 -55 -25 -74
-14 -13 -38 -24 -54 -26 -16 -1 -37 -9 -46 -18 -9 -10 -23 -17 -30 -17 -9 0
-12 -6 -9 -15 4 -9 0 -15 -9 -15 -9 0 -15 -8 -14 -19 1 -19 2 -19 32 2 16 12
32 25 34 30 2 5 7 3 12 -4 7 -11 11 -10 22 5 17 23 57 13 57 -14 0 -10 9 -22
20 -25 11 -3 23 -18 26 -32 6 -22 10 -24 40 -19 26 5 34 3 38 -11 7 -20 69
-49 74 -34 2 6 15 6 34 0 17 -4 35 -6 39 -3 10 6 51 -16 61 -32 5 -8 20 -9 43
-4 23 5 35 4 35 -3 0 -5 8 -3 18 6 12 11 22 13 35 5 14 -8 23 -4 42 16 13 14
27 22 30 16 3 -5 12 -7 20 -3 18 6 105 -80 105 -104 0 -11 3 -13 13 -5 17 14
33 3 47 -33 8 -21 13 -26 19 -16 7 11 14 10 35 -4 14 -10 26 -21 26 -26 0 -4
16 -13 35 -20 19 -7 37 -21 41 -31 3 -10 9 -18 14 -18 21 0 14 -39 -14 -80
-34 -51 -61 -76 -93 -90 -13 -5 -23 -16 -23 -25 0 -8 -11 -17 -25 -21 -16 -4
-25 -13 -25 -25 0 -11 -7 -19 -17 -19 -9 0 -13 -3 -10 -7 4 -3 -3 -11 -16 -17
-12 -6 -26 -21 -32 -34 -6 -15 -15 -20 -27 -16 -20 6 -88 -16 -88 -29 0 -4 -3
-6 -7 -4 -5 3 -19 0 -33 -6 -44 -18 -54 -19 -125 -18 -63 1 -140 7 -140 11 0
1 -15 3 -34 5 -19 2 -37 8 -40 13 -6 9 -66 43 -76 42 -34 -1 -45 2 -45 15 0 8
-6 12 -12 10 -25 -9 -188 163 -234 245 -6 11 -19 29 -29 40 -10 11 -15 23 -12
26 4 4 -2 19 -13 34 -11 16 -20 31 -20 34 0 7 -13 24 -42 57 -10 10 -18 28
-18 39 0 12 -10 31 -22 44 -13 13 -29 33 -36 45 -13 23 -8 61 9 61 5 0 9 6 9
13 0 15 29 19 46 6 7 -6 16 -4 23 5 18 21 54 8 48 -18 -2 -11 -1 -32 3 -46 7
-21 8 -19 9 17 1 23 4 48 7 57 4 10 1 16 -10 16 -8 0 -32 7 -53 16 -35 15 -52
24 -140 71 -18 9 -33 24 -33 34 0 9 -7 22 -15 29 -28 23 -16 90 16 90 13 0 19
7 19 21 0 12 8 23 19 26 11 3 21 13 24 24 3 10 12 19 21 19 9 0 16 5 16 11 0
14 39 49 54 49 6 0 25 13 41 29 17 15 41 33 53 40 12 6 22 18 22 25 0 13 27
31 42 28 4 -1 21 16 38 39 24 29 37 38 51 34 12 -4 19 -2 19 7 0 7 17 21 38
30 20 9 49 27 63 38 14 12 32 22 40 24 31 5 59 18 59 27 0 5 31 9 68 9 l69 0
64 -64z"/>
<path d="M1398 9102 c-10 -2 -18 -11 -18 -20 0 -24 17 -48 27 -39 4 5 1 12 -7
17 -13 8 -12 11 5 24 22 16 19 24 -7 18z"/>
<path d="M1981 7798 c8 -83 54 -188 78 -180 10 3 12 -1 8 -19 -6 -22 5 -51 49
-129 13 -23 14 -20 8 35 -4 42 -12 64 -25 74 -11 7 -19 25 -19 41 0 15 -6 33
-14 39 -15 13 -7 64 13 84 7 7 0 24 -20 48 -17 21 -28 43 -24 49 3 5 2 10 -4
10 -5 0 -12 -6 -14 -12 -4 -9 -12 -6 -24 10 -19 23 -19 23 -12 -50z m39 12 c0
-5 -5 -10 -11 -10 -5 0 -7 5 -4 10 3 6 8 10 11 10 2 0 4 -4 4 -10z m25 -50 c3
-5 1 -10 -4 -10 -6 0 -11 5 -11 10 0 6 2 10 4 10 3 0 8 -4 11 -10z m64 -216
c3 -16 1 -17 -13 -5 -19 16 -21 34 -3 29 6 -3 14 -13 16 -24z"/>
<path d="M2166 7431 c-4 -7 -5 -15 -2 -18 9 -9 19 4 14 18 -4 11 -6 11 -12 0z"/>
<path d="M6540 8800 c0 -5 5 -10 10 -10 6 0 10 5 10 10 0 6 -4 10 -10 10 -5 0
-10 -4 -10 -10z"/>
<path d="M5262 7590 c0 -14 2 -19 5 -12 2 6 2 18 0 25 -3 6 -5 1 -5 -13z"/>
<path d="M5021 7024 c0 -11 3 -14 6 -6 3 7 2 16 -1 19 -3 4 -6 -2 -5 -13z"/>
<path d="M5276 7023 c-6 -14 -5 -15 5 -6 7 7 10 15 7 18 -3 3 -9 -2 -12 -12z"/>
<path d="M7677 7536 c-4 -10 -1 -13 9 -9 15 6 19 23 5 23 -5 0 -11 -7 -14 -14z"/>
<path d="M3285 5069 c-15 -18 -31 -44 -37 -58 -16 -42 -49 -200 -58 -276 -12
-100 -12 -100 157 -99 l138 0 -3 40 c-2 21 -14 80 -28 129 -14 50 -27 97 -29
105 -14 63 -34 131 -46 156 -21 43 -59 44 -94 3z"/>
<path d="M8663 5513 c-6 -16 15 -582 24 -624 9 -49 36 -68 92 -65 64 2 98 37
107 109 4 26 11 50 15 53 12 7 12 201 0 208 -4 3 -11 33 -14 67 -11 100 -59
184 -140 241 -35 25 -77 30 -84 11z"/>
<path d="M6085 5460 c-12 -5 -27 -28 -38 -58 -17 -47 -18 -86 -14 -544 5 -498
7 -535 45 -653 18 -58 69 -138 98 -154 16 -9 32 -20 35 -25 10 -13 67 31 93
73 12 20 35 72 50 116 15 44 36 103 46 130 30 81 43 183 37 291 -9 178 -27
348 -41 394 -8 25 -17 66 -21 91 -15 113 -89 240 -172 296 -61 41 -93 52 -118
43z"/>
<path d="M3782 2900 c0 -14 2 -19 5 -12 2 6 2 18 0 25 -3 6 -5 1 -5 -13z"/>
<path d="M3801 2354 c0 -11 3 -14 6 -6 3 7 2 16 -1 19 -3 4 -6 -2 -5 -13z"/>
<path d="M2597 2283 c-4 -3 -7 -13 -7 -22 1 -13 3 -13 11 2 11 19 8 33 -4 20z"/>
</g>
</svg>
